<?xml version="1.0" encoding="UTF-8" standalone="no"?>
<svg
   version="1.0"
   width="1048.7584pt"
   height="278.10434pt"
   viewBox="0 0 1048.7584 278.10434"
   preserveAspectRatio="xMidYMid"
   id="svg17"
   sodipodi:docname="header.svg"
   inkscape:version="1.4.2 (f4327f4, 2025-05-13)"
   xmlns:inkscape="http://www.inkscape.org/namespaces/inkscape"
   xmlns:sodipodi="http://sodipodi.sourceforge.net/DTD/sodipodi-0.dtd"
   xmlns="http://www.w3.org/2000/svg"
   xmlns:svg="http://www.w3.org/2000/svg">
  <defs
     id="defs17" />
  <sodipodi:namedview
     id="namedview17"
     pagecolor="#505050"
     bordercolor="#eeeeee"
     borderopacity="1"
     inkscape:showpageshadow="0"
     inkscape:pageopacity="0"
     inkscape:pagecheckerboard="0"
     inkscape:deskcolor="#505050"
     inkscape:document-units="pt"
     inkscape:zoom="0.67447917"
     inkscape:cx="696.09266"
     inkscape:cy="190.51737"
     inkscape:window-width="1920"
     inkscape:window-height="991"
     inkscape:window-x="-9"
     inkscape:window-y="-9"
     inkscape:window-maximized="1"
     inkscape:current-layer="svg17" />
  <g
     transform="matrix(0.1,0,0,-0.1,-90.241622,575.00435)"
     fill="#000000"
     stroke="none"
     id="g17">
    <path
       d="m 1710,5744 c -14,-2 -58,-9 -98,-15 -378,-56 -685,-341 -708,-659 -8,-105 14,-203 73,-320 39,-78 63,-110 131,-177 l 83,-81 -41,-152 c -22,-83 -40,-159 -40,-169 0,-24 31,-51 58,-51 19,0 202,92 360,182 l 53,30 84,-13 c 52,-7 130,-10 206,-6 l 123,5 82,-76 c 98,-92 165,-134 284,-178 151,-57 316,-77 458,-54 l 64,11 195,-106 c 209,-114 232,-120 255,-70 9,21 5,52 -25,174 l -36,149 77,79 c 117,118 168,226 179,383 11,162 -50,313 -177,440 -152,151 -359,234 -610,246 -90,4 -96,5 -114,31 -89,128 -176,209 -298,277 -161,90 -446,145 -618,120 z m 355,-143 c 159,-42 325,-141 405,-242 22,-28 39,-53 37,-56 -2,-2 -37,-12 -76,-23 -266,-74 -467,-259 -526,-485 -19,-76 -19,-195 1,-265 31,-112 42,-100 -86,-100 -62,0 -141,5 -175,11 -34,7 -73,9 -86,6 -13,-4 -82,-38 -153,-77 -70,-38 -132,-70 -136,-70 -4,0 5,50 21,112 16,62 26,120 23,130 -3,10 -36,43 -73,73 -107,85 -177,194 -207,322 -70,299 193,602 591,679 103,20 337,12 440,-15 z m 762,-412 c 326,-44 567,-252 581,-501 10,-174 -44,-275 -237,-439 -38,-32 -38,-47 -6,-163 14,-49 23,-91 21,-93 -2,-2 -32,13 -67,33 -35,20 -100,54 -143,76 l -79,40 -65,-13 c -107,-20 -278,-7 -392,30 -115,37 -178,73 -254,142 l -57,52 93,36 c 157,62 271,146 363,265 101,133 141,254 132,406 -3,52 -9,105 -12,118 -9,26 3,28 122,11 z m -239,-49 c 8,-28 12,-79 10,-137 -4,-84 -7,-98 -46,-177 -74,-148 -209,-264 -394,-337 -40,-15 -81,-28 -90,-29 -11,0 -23,19 -38,66 -31,94 -26,224 13,309 72,155 217,271 417,332 101,30 111,28 128,-27 z"
       id="path1" />
    <path
       d="m 3919,5291 c -49,-50 -64,7 227,-896 46,-143 90,-270 99,-282 24,-34 76,-47 120,-29 44,19 53,38 195,414 57,149 106,272 109,272 3,0 64,-146 135,-325 75,-187 138,-333 150,-343 28,-26 60,-32 101,-21 45,13 59,35 96,155 89,289 216,696 255,816 54,167 56,206 13,242 -37,31 -77,33 -113,5 -28,-22 -35,-42 -202,-589 -47,-157 -90,-292 -94,-300 -7,-12 -11,-8 -20,15 -87,236 -226,590 -241,614 -25,41 -57,53 -104,40 -45,-13 -45,-12 -193,-397 -61,-156 -112,-280 -114,-275 -3,4 -63,195 -133,423 -70,228 -134,427 -141,442 -29,57 -98,65 -145,19 z"
       id="path2" />
    <path
       d="m 5680,5307 c -50,-25 -50,-24 -50,-614 v -552 l 24,-28 24,-28 345,-3 345,-3 28,25 c 37,31 40,94 6,128 -22,23 -27,23 -302,26 l -280,3 v 184 184 l 241,3 241,3 24,28 c 13,15 24,37 24,48 0,35 -29,78 -57,85 -15,4 -127,8 -250,8 l -223,1 v 168 167 h 268 c 245,0 270,2 298,19 19,12 33,30 37,48 7,39 -17,91 -48,103 -41,15 -664,13 -695,-3 z"
       id="path3" />
    <path
       d="m 6673,5310 c -55,-23 -54,-10 -51,-618 l 3,-561 23,-23 c 22,-23 27,-23 287,-26 155,-2 289,1 322,7 123,23 214,89 262,191 22,48 25,69 25,155 0,83 -3,109 -23,152 -25,57 -90,123 -145,149 l -34,17 42,31 c 80,61 118,177 96,290 -16,80 -41,126 -91,169 -77,66 -101,71 -414,74 -155,1 -290,-2 -302,-7 z m 554,-190 c 51,-30 68,-65 68,-136 0,-70 -17,-102 -75,-141 -31,-22 -42,-23 -221,-23 h -189 v 160 160 h 193 c 173,0 195,-2 224,-20 z m 43,-503 c 61,-32 85,-81 85,-173 0,-85 -26,-133 -91,-164 -36,-18 -61,-20 -247,-20 h -207 v 190 190 h 208 c 198,0 211,-1 252,-23 z"
       id="path4" />
    <path
       d="m 7799,5305 c -15,-8 -32,-29 -38,-46 -7,-22 -11,-202 -11,-566 0,-582 0,-582 56,-603 14,-6 166,-10 345,-10 h 321 l 30,30 c 26,27 30,36 25,68 -4,22 -17,46 -32,60 -26,22 -31,22 -291,22 h -264 v 501 501 l -29,29 c -33,32 -70,37 -112,14 z"
       id="path5" />
    <path
       d="m 8749,5291 -29,-29 v -567 -566 l 25,-24 c 24,-25 81,-34 120,-19 44,17 45,33 45,609 0,467 -2,550 -15,575 -30,59 -98,68 -146,21 z"
       id="path6" />
    <path
       d="m 9224,5308 c -12,-5 -27,-21 -33,-34 -8,-18 -11,-194 -11,-583 0,-550 0,-559 21,-585 26,-32 84,-36 120,-7 l 24,19 5,428 5,428 161,-214 c 89,-118 234,-312 323,-430 89,-118 171,-223 183,-232 28,-25 99,-24 129,1 l 24,19 v 577 577 l -28,24 c -34,29 -76,31 -108,5 l -24,-19 -5,-434 -5,-433 -332,442 c -183,243 -341,447 -352,452 -24,14 -69,13 -97,-1 z"
       id="path7" />
    <path
       d="m 10493,5310 c -12,-5 -27,-18 -33,-30 -10,-18 -14,-486 -10,-1133 0,-10 11,-29 25,-42 35,-36 105,-35 134,1 19,25 21,40 21,193 v 166 l 94,94 94,94 159,-214 c 87,-118 175,-238 196,-266 52,-72 82,-93 129,-93 54,0 88,35 88,89 0,36 -19,65 -216,327 l -217,287 212,204 c 205,199 211,206 211,244 0,50 -35,89 -79,89 -38,0 -42,-4 -381,-332 l -285,-277 -5,286 c -5,284 -5,285 -29,304 -24,20 -71,24 -108,9 z"
       id="path8" />
    <path
       d="m 987,3562 c -3,-4 -5,-138 -3,-298 l 2,-289 32,-3 32,-3 2,228 3,228 107,-180 c 116,-196 124,-208 141,-202 7,2 58,84 114,183 56,98 107,186 112,194 7,10 10,-61 10,-218 l 1,-233 33,3 32,3 v 295 295 l -27,3 c -32,4 -40,-7 -180,-260 -51,-92 -95,-167 -98,-167 -3,-1 -61,95 -130,212 -108,183 -129,212 -152,215 -14,2 -29,-1 -31,-6 z"
       id="path9" />
    <path
       d="m 1790,3270 v -300 h 210 210 v 30 30 h -175 -175 v 110 110 h 150 150 v 25 25 l -127,1 c -71,1 -138,2 -150,2 -22,1 -23,4 -23,104 v 103 h 170 170 v 30 30 h -205 -205 z"
       id="path10" />
    <path
       d="m 2420,3555 c -78,-35 -117,-101 -105,-175 10,-59 52,-96 138,-121 147,-42 172,-51 191,-67 31,-28 37,-59 21,-98 -18,-44 -63,-64 -143,-64 -67,0 -111,13 -162,47 l -34,23 -14,-26 c -17,-33 -7,-45 61,-75 71,-32 222,-34 282,-4 54,27 85,76 85,134 0,101 -37,128 -251,186 -104,28 -137,93 -80,157 27,30 34,33 104,36 60,3 84,0 122,-17 59,-26 59,-26 73,5 12,24 10,26 -35,47 -63,28 -201,35 -253,12 z"
       id="path11" />
    <path
       d="m 2955,3558 c -101,-37 -146,-143 -95,-225 24,-40 53,-55 170,-88 144,-41 170,-59 170,-123 0,-38 -41,-79 -87,-88 -71,-13 -160,1 -211,35 -43,28 -48,29 -60,14 -21,-29 -10,-46 48,-78 51,-28 63,-30 155,-30 88,0 105,3 144,25 72,41 98,119 67,195 -17,40 -60,70 -131,89 -27,8 -76,22 -109,31 -32,9 -69,27 -82,40 -26,26 -32,72 -13,107 27,50 162,65 251,26 42,-18 51,-19 59,-7 16,25 5,43 -36,64 -47,23 -193,31 -240,13 z"
       id="path12" />
    <path
       d="m 3539,3483 c -23,-48 -67,-146 -99,-218 -32,-71 -74,-165 -94,-208 -20,-43 -36,-80 -36,-83 0,-3 16,-4 37,-2 35,3 37,6 67,78 l 32,75 165,3 166,2 36,-80 c 35,-78 37,-80 72,-80 19,0 35,2 35,5 0,7 -211,464 -247,535 -24,48 -32,55 -61,58 -32,3 -33,2 -73,-85 z m 139,-133 c 34,-74 62,-141 64,-148 2,-11 -23,-13 -127,-12 -71,0 -131,2 -133,4 -2,3 112,267 125,289 7,11 3,18 71,-133 z"
       id="path13" />
    <path
       d="m 4145,3550 c -58,-23 -128,-87 -158,-145 -29,-57 -35,-167 -12,-236 27,-79 112,-162 190,-184 85,-25 187,-17 262,21 l 58,29 3,118 3,117 h -36 -35 v -101 -100 l -46,-21 c -69,-30 -165,-23 -230,18 -97,60 -141,191 -99,299 20,54 88,117 143,133 85,26 187,9 238,-39 20,-19 21,-19 44,6 23,25 23,25 4,40 -56,45 -99,59 -189,62 -72,2 -100,-1 -140,-17 z"
       id="path14" />
    <path
       d="m 4660,3270 v -301 l 33,3 32,3 v 295 295 l -32,3 -33,3 z"
       id="path15" />
    <path
       d="m 4910,3270 v -301 l 33,3 32,3 v 228 c 0,125 3,227 6,227 3,0 88,-104 189,-230 162,-204 187,-231 209,-228 l 26,3 v 295 295 l -32,3 -33,3 -2,-234 -3,-235 -185,232 c -151,189 -190,232 -212,234 l -28,3 z"
       id="path16" />
    <path
       d="m 5760,3561 c -136,-42 -215,-149 -214,-291 1,-124 57,-215 162,-267 50,-25 68,-28 152,-28 75,0 104,4 140,21 77,36 80,41 80,165 v 109 h -35 -35 v -99 -99 l -37,-18 c -87,-41 -202,-27 -273,33 -134,115 -111,322 45,398 49,25 64,27 130,23 59,-4 83,-11 114,-31 48,-32 53,-33 75,-8 17,18 16,20 -17,45 -18,14 -53,32 -76,41 -45,16 -167,19 -211,6 z"
       id="path17" />
  </g>
</svg>
