<?xml version="1.0" encoding="UTF-8" standalone="no"?>
<svg
   version="1.0"
   width="382.76001pt"
   height="382.76001pt"
   viewBox="0 0 382.76001 382.76001"
   preserveAspectRatio="xMidYMid"
   id="svg1"
   sodipodi:docname="icon.svg"
   inkscape:version="1.4.2 (f4327f4, 2025-05-13)"
   xmlns:inkscape="http://www.inkscape.org/namespaces/inkscape"
   xmlns:sodipodi="http://sodipodi.sourceforge.net/DTD/sodipodi-0.dtd"
   xmlns="http://www.w3.org/2000/svg"
   xmlns:svg="http://www.w3.org/2000/svg">
  <defs
     id="defs1" />
  <sodipodi:namedview
     id="namedview1"
     pagecolor="#505050"
     bordercolor="#eeeeee"
     borderopacity="1"
     inkscape:showpageshadow="0"
     inkscape:pageopacity="0"
     inkscape:pagecheckerboard="0"
     inkscape:deskcolor="#505050"
     inkscape:document-units="pt"
     inkscape:zoom="0.8060166"
     inkscape:cx="251.23552"
     inkscape:cy="180.51737"
     inkscape:window-width="1920"
     inkscape:window-height="991"
     inkscape:window-x="-9"
     inkscape:window-y="-9"
     inkscape:window-maximized="1"
     inkscape:current-layer="svg1" />
  <g
     transform="matrix(0.1,0,0,-0.1,-323.73949,547.57521)"
     fill="#000000"
     stroke="none"
     id="g1">
    <path
       d="m 4575,4964 c -348,-34 -578,-110 -821,-272 -388,-260 -576,-661 -500,-1066 44,-232 167,-421 392,-604 l 51,-42 -49,-192 c -27,-106 -55,-215 -63,-242 -20,-67 -19,-102 5,-126 42,-42 34,-46 435,205 l 220,137 152,-17 c 165,-19 270,-17 446,11 l 99,16 71,-69 c 188,-181 415,-279 703,-304 141,-12 318,0 434,31 l 74,19 118,-64 c 421,-231 396,-219 433,-205 46,17 50,47 21,149 -49,172 -75,266 -87,313 l -11,46 80,76 c 125,120 204,244 258,406 26,78 28,98 29,235 0,144 -1,154 -33,245 -39,115 -84,194 -161,283 -205,237 -494,366 -859,383 -140,7 -144,8 -160,33 -58,96 -93,142 -150,203 -187,198 -478,345 -777,391 -106,17 -284,27 -350,21 z m 306,-148 c 250,-35 504,-151 670,-304 73,-67 175,-200 163,-211 -5,-5 -43,-16 -84,-25 -216,-48 -450,-176 -606,-331 -123,-123 -195,-240 -250,-405 -25,-77 -28,-99 -28,-230 0,-162 10,-211 71,-338 19,-41 32,-76 30,-79 -26,-25 -409,-27 -552,-3 l -70,12 -120,-72 c -66,-40 -173,-107 -238,-147 -66,-41 -121,-73 -122,-71 -2,2 18,88 46,192 27,103 49,201 49,217 0,24 -13,38 -89,94 -378,277 -483,691 -275,1085 165,313 539,554 955,614 123,18 330,19 450,2 z m 1334,-658 c 487,-99 801,-496 706,-893 -47,-195 -109,-287 -344,-508 -20,-19 -28,-34 -24,-50 4,-19 69,-257 85,-311 7,-26 0,-23 -204,89 -105,58 -183,95 -200,95 -16,0 -67,-9 -112,-20 -121,-29 -264,-43 -367,-35 -234,17 -470,112 -630,253 -20,18 -36,35 -34,36 2,2 36,16 74,31 186,73 350,180 486,315 167,165 264,339 307,545 28,141 26,267 -8,399 -11,44 -20,81 -20,84 0,9 190,-11 285,-30 z m -412,-27 c 50,-123 49,-339 -2,-490 -101,-300 -348,-539 -706,-681 -41,-16 -82,-30 -90,-30 -20,0 -79,111 -106,200 -32,104 -32,254 0,360 43,141 114,256 230,370 147,145 322,238 556,294 94,23 101,21 118,-23 z"
       id="path1" />
  </g>
</svg>
