<?xml version="1.0" encoding="UTF-8" standalone="no"?>
<svg
   version="1.0"
   width="423.88843pt"
   height="324.28204pt"
   viewBox="0 0 423.88843 324.28204"
   preserveAspectRatio="xMidYMid"
   id="svg17"
   sodipodi:docname="logo.svg"
   inkscape:version="1.4.2 (f4327f4, 2025-05-13)"
   xmlns:inkscape="http://www.inkscape.org/namespaces/inkscape"
   xmlns:sodipodi="http://sodipodi.sourceforge.net/DTD/sodipodi-0.dtd"
   xmlns="http://www.w3.org/2000/svg"
   xmlns:svg="http://www.w3.org/2000/svg">
  <defs
     id="defs17" />
  <sodipodi:namedview
     id="namedview17"
     pagecolor="#505050"
     bordercolor="#eeeeee"
     borderopacity="1"
     inkscape:showpageshadow="0"
     inkscape:pageopacity="0"
     inkscape:pagecheckerboard="0"
     inkscape:deskcolor="#505050"
     inkscape:document-units="pt"
     inkscape:zoom="0.8060166"
     inkscape:cx="278.53024"
     inkscape:cy="179.27671"
     inkscape:window-width="1920"
     inkscape:window-height="991"
     inkscape:window-x="-9"
     inkscape:window-y="-9"
     inkscape:window-maximized="1"
     inkscape:current-layer="svg17" />
  <g
     transform="matrix(0.1,0,0,-0.1,-303.11158,496.07844)"
     fill="#000000"
     stroke="none"
     id="g17">
    <path
       d="m 3042,4948 c -19,-19 -15,-48 27,-180 22,-68 63,-197 91,-288 61,-193 70,-210 109,-210 37,0 51,19 88,115 87,229 105,275 108,275 2,0 21,-46 43,-102 67,-172 111,-271 124,-280 26,-16 67,-9 79,15 12,20 152,458 185,572 17,60 11,83 -23,91 -53,14 -51,19 -152,-311 -33,-104 -62,-189 -66,-188 -8,2 -27,47 -90,213 -58,156 -61,160 -94,160 -16,0 -33,-6 -38,-12 -6,-7 -41,-93 -79,-190 -38,-98 -71,-178 -74,-178 -3,0 -16,35 -28,78 -13,42 -49,156 -80,252 -56,173 -57,175 -87,178 -17,2 -36,-3 -43,-10 z"
       id="path1" />
    <path
       d="m 4026,4944 c -14,-13 -16,-57 -16,-329 0,-272 2,-316 16,-329 13,-14 47,-16 214,-16 193,0 200,1 211,21 8,16 8,28 0,45 -10,23 -13,24 -173,26 l -163,3 v 105 105 l 134,3 c 140,3 161,9 161,46 0,41 -17,46 -162,46 h -139 l 3,98 3,97 160,3 c 136,2 162,5 173,19 16,22 15,38 -4,57 -13,13 -46,16 -209,16 -163,0 -196,-3 -209,-16 z"
       id="path2" />
    <path
       d="m 4587,4942 c -15,-16 -17,-54 -17,-323 0,-259 2,-308 16,-327 15,-21 21,-22 177,-22 89,0 179,5 201,11 21,6 57,28 80,49 40,38 41,39 44,117 4,93 -14,135 -70,172 l -37,24 28,26 c 36,33 55,91 48,148 -6,57 -31,92 -87,121 -40,20 -58,22 -206,22 -143,0 -163,-2 -177,-18 z m 345,-100 c 35,-35 32,-106 -5,-138 -26,-22 -36,-24 -138,-24 h -109 v 96 96 l 115,-4 c 103,-3 117,-5 137,-26 z m -8,-266 c 18,-8 41,-24 50,-37 20,-30 21,-102 0,-134 -23,-35 -64,-45 -185,-45 h -109 v 115 115 h 105 c 68,0 118,-5 139,-14 z"
       id="path3" />
    <path
       d="m 5232,4948 c -9,-9 -12,-97 -12,-333 0,-236 3,-324 12,-333 8,-8 68,-12 203,-12 200,0 215,3 215,45 0,41 -16,45 -177,45 h -153 v 278 c 0,235 -2,281 -16,300 -17,24 -53,29 -72,10 z"
       id="path4" />
    <path
       d="m 5776,4938 c -14,-19 -16,-63 -16,-314 0,-333 3,-354 56,-354 28,0 36,5 44,26 15,40 13,603 -3,634 -17,34 -60,39 -81,8 z"
       id="path5" />
    <path
       d="m 6040,4950 c -13,-8 -15,-57 -18,-318 -2,-192 1,-319 7,-335 13,-34 64,-38 81,-7 7,13 10,100 8,250 -2,127 0,229 4,228 4,-2 28,-32 55,-68 297,-397 324,-430 358,-430 18,0 35,6 38,14 8,21 10,639 2,659 -8,20 -60,24 -72,5 -4,-7 -10,-121 -13,-253 l -5,-240 -169,225 c -93,124 -180,237 -194,253 -26,28 -55,34 -82,17 z"
       id="path6" />
    <path
       d="m 6756,4938 c -14,-19 -16,-67 -16,-326 0,-190 4,-311 10,-323 12,-22 59,-26 78,-7 8,8 12,47 12,108 v 96 l 54,53 54,53 119,-158 c 98,-131 124,-160 146,-162 34,-4 57,13 57,43 0,13 -51,91 -122,185 l -121,164 121,117 c 67,65 122,123 122,129 0,27 -22,50 -47,50 -21,0 -63,-36 -198,-170 -94,-93 -174,-170 -178,-170 -4,0 -7,71 -7,158 0,110 -4,162 -12,170 -19,19 -55,14 -72,-10 z"
       id="path7" />
    <path
       d="m 4614,4011 c -80,-13 -211,-60 -294,-105 -109,-60 -234,-187 -283,-288 -48,-100 -61,-162 -54,-273 8,-153 74,-286 196,-397 l 60,-54 -35,-129 c -40,-154 -43,-190 -13,-206 24,-12 57,2 278,124 82,45 129,66 142,62 45,-14 185,-22 262,-14 l 82,8 65,-63 c 102,-100 194,-155 330,-197 66,-21 96,-24 250,-25 l 175,-1 156,-87 c 86,-47 165,-86 177,-86 23,0 52,25 52,43 0,7 -15,71 -34,143 l -33,132 62,58 c 214,203 233,503 47,723 -126,148 -330,238 -577,257 l -90,7 -33,53 c -39,63 -143,156 -233,209 -35,20 -111,53 -169,73 -101,34 -111,35 -270,38 -91,1 -188,-1 -216,-5 z m 379,-111 c 141,-32 264,-96 355,-185 41,-40 72,-79 70,-86 -2,-7 -33,-20 -69,-29 -35,-9 -93,-31 -129,-48 -265,-129 -407,-385 -344,-617 32,-116 39,-105 -62,-105 -49,0 -123,5 -165,11 l -76,12 -137,-72 c -156,-82 -143,-89 -105,59 11,41 18,84 14,97 -3,12 -25,36 -49,52 -124,86 -215,253 -216,396 0,106 63,240 158,332 175,170 479,244 755,183 z m 847,-409 c 115,-39 196,-88 264,-161 64,-69 87,-109 111,-195 43,-147 -27,-323 -174,-439 -70,-55 -71,-58 -37,-172 13,-43 22,-82 20,-86 -2,-3 -61,25 -130,64 l -125,70 -72,-13 c -137,-23 -300,2 -432,66 -66,32 -161,102 -177,130 -5,8 15,21 65,40 114,45 186,92 274,180 154,153 207,323 166,528 l -6,30 84,-6 c 52,-4 118,-18 169,-36 z m -349,-13 c 7,-24 12,-75 11,-115 -2,-202 -182,-406 -429,-487 -29,-10 -57,-15 -63,-11 -23,14 -42,118 -38,204 4,76 9,94 42,159 42,80 122,161 203,207 61,34 199,85 235,85 24,0 29,-6 39,-42 z"
       id="path8" />
    <path
       d="m 4575,2014 c -44,-15 -65,-37 -65,-69 0,-38 28,-63 97,-86 83,-27 95,-35 91,-68 -4,-36 -47,-55 -104,-46 -24,3 -46,10 -49,16 -9,14 -35,11 -35,-5 0,-31 136,-49 183,-25 29,16 37,28 37,62 0,48 -17,64 -87,87 -81,27 -93,35 -93,65 0,44 57,62 138,42 21,-6 32,-5 32,2 0,28 -90,44 -145,25 z"
       id="path9" />
    <path
       d="m 4860,2020 c -40,-10 -70,-42 -70,-77 0,-36 39,-68 106,-88 70,-20 84,-30 84,-60 0,-46 -70,-68 -134,-41 -47,20 -56,20 -56,2 0,-19 63,-39 118,-38 77,1 126,55 100,110 -10,21 -30,33 -92,54 -96,33 -116,56 -80,92 23,24 59,30 109,17 53,-13 55,-13 55,-1 0,24 -85,43 -140,30 z"
       id="path10" />
    <path
       d="m 5487,2014 c -52,-16 -89,-61 -102,-121 -10,-51 32,-135 80,-157 44,-21 152,-19 179,3 22,19 23,131 1,131 -12,0 -15,-13 -15,-55 v -54 l -41,-11 c -94,-26 -175,39 -166,133 8,91 94,140 182,103 48,-20 72,-5 28,17 -45,24 -94,28 -146,11 z"
       id="path11" />
    <path
       d="m 6325,2012 c -72,-25 -98,-67 -93,-150 4,-57 8,-66 41,-100 37,-36 39,-37 116,-37 100,0 111,8 111,86 0,46 -3,59 -15,59 -11,0 -15,-12 -15,-49 0,-27 -6,-53 -12,-58 -44,-34 -132,-20 -172,28 -20,24 -26,41 -26,81 0,43 4,54 33,83 43,43 93,53 150,31 50,-19 57,-19 57,-6 0,5 -13,16 -28,24 -47,24 -93,27 -147,8 z"
       id="path12" />
    <path
       d="m 3810,1871 c 0,-126 2,-151 15,-151 12,0 15,22 17,118 l 3,117 60,-99 c 33,-55 64,-99 69,-99 5,1 35,45 65,99 l 56,98 3,-117 c 2,-107 4,-117 21,-117 13,0 18,6 16,18 -2,9 -4,77 -4,150 -1,161 -9,167 -76,50 -63,-113 -82,-137 -95,-118 -5,8 -33,56 -63,105 -80,133 -87,129 -87,-54 z"
       id="path13" />
    <path
       d="m 4240,1870 v -150 h 105 c 87,0 105,3 105,15 0,12 -17,15 -90,15 h -90 v 55 55 h 81 c 60,0 80,3 77,13 -3,8 -31,13 -82,15 l -77,3 3,52 3,52 88,3 c 124,4 110,22 -18,22 h -105 z"
       id="path14" />
    <path
       d="m 5157,1968 c -14,-29 -43,-94 -66,-144 -46,-102 -46,-104 -28,-104 8,0 22,18 32,40 l 18,40 h 87 87 l 18,-40 c 10,-22 24,-40 32,-40 19,0 15,10 -57,166 -71,154 -87,164 -123,82 z m 81,-59 c 17,-38 32,-74 32,-80 0,-5 -31,-9 -70,-9 -40,0 -70,4 -70,10 0,15 62,150 69,150 3,0 21,-32 39,-71 z"
       id="path15" />
    <path
       d="m 5750,1870 c 0,-143 1,-150 20,-150 19,0 20,7 20,150 0,143 -1,150 -20,150 -19,0 -20,-7 -20,-150 z"
       id="path16" />
    <path
       d="m 5890,1870 c 0,-127 2,-150 15,-150 12,0 15,19 15,115 0,63 3,115 8,115 4,-1 47,-52 96,-115 123,-157 126,-156 126,35 0,143 -1,150 -20,150 -18,0 -20,-8 -22,-117 l -3,-118 -94,118 c -52,64 -100,117 -108,117 -10,0 -13,-31 -13,-150 z"
       id="path17" />
  </g>
</svg>
